<svg class="icon" viewBox="0 0 1024 1024" xmlns="http://www.w3.org/2000/svg" width="200" height="200"><defs><style/></defs><path d="M546.635 113.694c-9.035-5.27-22.588-6.776-32.376-3.012-3.012 1.506-5.27 3.765-7.53 6.777-.753.753-2.258 1.506-3.011 2.259-8.283 6.776-11.294 20.33-7.53 30.117 8.283 22.589 40.66 34.636 58.73 16.565 16.564-15.812 10.54-42.165-8.283-52.706zm-1.506 34.635c-4.517 13.553-21.835 7.53-28.611-.753-3.012-3.764-3.765-7.529-3.012-11.294 1.506-2.258 2.259-3.764 3.765-6.023 3.011-4.518 0-2.259 4.517-3.012 2.26-.753 5.27-.753 8.283 0 9.788 1.506 18.823 10.541 15.058 21.082z" fill="#FBC20E"/><path d="M556.424 161.13c-20.33 19.576-45.93 4.517-60.236-11.295 8.283 21.836 40.66 34.636 58.73 16.565 5.27-5.27 8.282-12.047 9.035-18.07-2.259 9.035-4.518 10.54-7.53 12.8z" fill="#E6AB0E"/><path d="M511.247 117.459c-.753.753-2.259 2.259-1.506 3.765.753 1.505 2.259 2.258 3.765 2.258s3.012-1.506 4.518-2.258c3.764-2.26 8.282-2.26 12.8-1.506 4.517.753 8.282 3.011 12.047 5.27.753.753 1.505 1.506 3.011 1.506.753 0 2.26.753 3.012 0 .753-.753 1.506-2.259.753-3.012 0-1.506-1.506-2.258-2.259-3.011-7.53-7.53-18.07-9.789-27.859-7.53-3.011 1.506-6.023 3.012-8.282 4.518zm39.906 15.059c0 1.506.753 3.011 1.506 3.764.753.753 3.012.753 3.765 0 .752-.753.752-1.506.752-3.011 0-.753 0-2.26-.752-3.012-1.506-2.259-5.271-1.506-5.271 2.259z" fill="#FBD77E"/><path d="M481.882 261.27s-14.306-83.576 51.2-88.094 57.224 99.389 57.224 99.389-37.647-24.847-108.424-11.294z" fill="#FCD53A"/><path d="M448.753 326.776s-21.835-85.082 83.576-86.588c105.412-.753 88.847 89.6 88.847 89.6s-57.223-31.623-172.423-3.012z" fill="#FBC20E"/><path d="M312.47 423.906c-41.411 66.259-54.211 147.576-49.694 225.882 1.506 24.094 4.518 48.188 14.306 70.777 8.283 20.33 21.836 37.647 36.894 53.459 39.153 39.152 92.612 62.494 147.577 70.776 54.965 7.53 111.435 0 163.388-18.07 27.106-9.036 54.212-21.083 76.8-39.154 45.93-35.388 73.035-91.105 81.318-148.329 8.282-57.223.753-115.953-14.306-171.67-6.024-23.342-13.553-47.436-25.6-68.518-24.094-41.412-67.012-70.777-112.941-85.083-90.353-28.611-191.247-14.305-264.283 48.189-21.082 16.564-39.153 38.4-53.458 61.74z" fill="#D83E3E"/><path d="M484.141 358.4c-60.988 17.318-112.941 65.506-134.776 124.988-9.036 24.094-13.553 50.447-17.318 76.047-6.776 43.67-12.8 90.353 3.012 131.012 16.565 41.412 63.247 73.788 104.659 58.73 33.882-12.8 50.447-49.695 65.506-82.071 15.058-32.377 38.4-68.518 73.788-72.282 22.588-2.26 48.94 8.282 67.012-6.024 14.305-11.294 15.811-32.376 24.847-48.188 26.353-47.436 61.74-104.66 3.764-148.33-48.188-38.4-132.517-50.447-190.494-33.882z" fill="#EB5959"/><path d="M406.588 437.459c-11.294 13.553-16.564 31.623-21.082 48.188-3.765 13.553-6.777 27.106-3.765 40.659 3.012 13.553 14.306 25.6 27.859 25.6 11.294 0 20.33-8.282 26.353-18.07 6.023-9.036 9.788-20.33 16.565-29.365 9.788-13.553 24.847-22.589 40.658-25.6 21.083-3.765 44.424 3.764 63.248-6.024 9.788-5.27 18.07-15.059 28.611-18.07 23.341-6.777 49.694 17.317 70.024 4.517 28.612-18.07 0-49.694-18.824-60.235-20.33-10.541-42.917-18.824-66.259-18.07-48.94 2.258-130.258 15.058-163.388 56.47zM371.953 640c3.012 12.047 6.776 24.094 12.8 35.388 3.765 7.53 9.035 14.306 17.318 17.318 8.282 3.012 18.823-1.506 24.094-9.035 5.27-7.53 6.023-17.318 3.011-25.6-6.023-16.565-11.294-25.6-12.8-43.671-1.505-12.047-.752-19.576-14.305-24.094-33.13-9.035-36.142 29.365-30.118 49.694z" fill="#F58181"/><path d="M509.741 414.87c-3.765 2.26-7.53 6.024-6.776 10.542.753 6.023 8.282 8.282 14.306 9.035 2.258 0 4.517.753 6.776 0 2.259-.753 3.765-2.259 6.024-4.518 5.27-4.517 12.8-7.529 19.576-7.529 6.777 0 20.33 3.765 24.847-4.518 3.012-6.023-1.506-12.047-6.776-14.306-14.306-6.023-45.93 3.012-57.977 11.295zm-76.047 43.671c0 1.506-.753 3.765.753 5.27 1.506 2.26 4.518 3.013 6.777 3.013 3.764.752 8.282.752 12.047 0s7.529-3.765 9.035-7.53c4.518-10.541 20.33-15.812 2.259-21.082-12.8-4.518-27.86 6.023-30.87 20.33z" fill="#F89B9B"/><path d="M751.435 543.624c-18.07 71.529-56.47 147.576-118.211 190.494-29.365 20.33-70.777 38.4-104.66 50.447-43.67 15.811-95.623 6.776-140.046-2.26-1.506 0-2.26 2.26-.753 3.013 87.34 30.117 188.988 31.623 266.54-22.589 72.283-51.2 109.93-130.258 99.39-218.353 0-1.505-2.26-1.505-2.26-.752zm-29.364 173.929c-8.283 9.788-17.318 19.576-27.106 27.859-1.506 1.506 0 3.012 1.506 2.259a250.565 250.565 0 0027.105-29.365l-1.505-.753z" fill="#BB3636"/><path d="M667.859 771.765c-33.883 17.317-70.024 28.611-106.918 36.894-2.259.753-2.259 4.517.753 4.517 39.153-4.517 74.541-18.823 106.918-40.658l-.753-.753zM577.506 742.4c30.87-16.565 63.247-40.659 80.565-72.282 1.505-2.26-2.26-3.765-3.012-2.26-24.094 27.86-45.93 53.46-78.306 73.036 0 .753 0 1.506.753 1.506zm140.047-173.176c-4.518 18.823-11.294 36.894-20.33 53.458-7.529 15.06-18.823 29.365-24.847 45.93-.752 2.259 1.506 3.764 3.012 2.259 24.094-26.353 39.153-67.012 42.165-101.647.753 0 0 0 0 0zm18.07-119.718c6.777 21.082 8.283 42.165 6.777 64 0 3.012 4.518 3.765 5.27.753 2.26-22.588-2.258-44.424-10.54-65.506-.754-.753-2.26-.753-1.506.753zM488.66 774.776c-6.777 0-12.8.753-19.577.753-.753 0-.753 1.506 0 1.506 6.777-.753 12.8-.753 19.577-1.506.753 0 0-.753 0-.753zm-198.024-235.67c-18.823 85.082-21.082 182.212 60.236 234.165 2.258 1.505 5.27-1.506 3.011-3.765-63.247-60.235-72.282-147.577-61.74-229.647 0-1.506-1.507-1.506-1.507-.753zm53.46-114.447c-10.542 4.517-18.824 23.341-23.342 33.13-7.53 17.317-12.047 36.893-16.565 55.717-.753 2.259 3.012 3.012 3.765.753 3.765-15.812 7.53-31.624 12.8-46.683 4.518-12.047 11.294-34.635 22.588-41.411 1.506-.753 1.506-1.506.753-1.506z" fill="#BB3636"/><path d="M501.459 258.259c-9.788 3.012-19.577 6.776-26.353 13.553-3.012 3.012-6.024 7.53-6.024 12.047s3.765 9.035 8.283 9.035c4.517-.753 6.776-4.518 9.788-8.282 9.788-12.047 26.353-15.06 41.412-14.306 15.059.753 30.117 5.27 45.176 5.27 4.518 0 10.541-1.505 11.294-6.023 1.506-13.553-21.835-14.306-30.117-15.059-18.07-2.259-36.142-.753-53.46 3.765z" fill="#FBD366"/><path d="M508.988 199.53c-6.776 5.27-9.788 15.058-9.788 24.094 0 1.505.753 3.764 2.259 5.27 2.259 1.506 5.27.753 7.53-1.506 1.505-2.259 2.258-4.517 3.764-7.53 2.259-4.517 7.53-6.776 12.047-8.282 4.518-1.505 9.788-1.505 15.059-1.505 6.776 0 15.059-2.26 13.553-10.542-.753-4.517-3.765-9.035-8.283-9.788-11.294-3.012-28.611 3.765-36.14 9.788z" fill="#FBE380"/><path d="M594.824 281.6c1.505.753 3.764 1.506 5.27.753.753 0 1.506 0 2.259-.753 4.518-3.012 0-10.541-4.518-11.294-6.023-.753-7.53 8.282-3.011 11.294z" fill="#FBD366"/><path d="M559.435 202.541c.753 0 1.506.753 1.506.753 3.012.753 6.777 0 7.53-3.012.753-2.258-.753-4.517-3.012-6.023-4.518-2.259-11.294 5.27-6.024 8.282z" fill="#FBE380"/><path d="M490.165 293.647c30.87-7.53 71.53-9.788 102.4-3.765.753 0 .753-.753 0-.753-15.812-4.517-32.377-10.54-48.941-9.788-18.071.753-37.648 6.777-54.212 13.553 0 0 0 1.506.753.753z" fill="#E1AA14"/><path d="M513.506 232.659c20.33-2.259 39.906 0 60.988 3.012 4.518.753 5.27-6.024.753-6.777-20.33-3.012-42.918-6.023-61.741 3.012-.753 0-.753.753 0 .753zm51.953-12.8c3.012 0 6.023.753 8.282 1.506 0-.753.753-2.26.753-3.012h-3.012c-2.258 0-3.011 3.012-.753 3.765h3.012c2.259 0 3.012-3.012.753-3.765-3.765-.753-6.023 0-9.788.753.753 0 .753.753.753.753zm1.506-10.541c1.506.753 3.764 1.506 5.27 1.506 1.506 0 2.26-3.012.753-3.012-2.259 0-3.764.753-6.023 1.506 0-.753 0 0 0 0z" fill="#E1BB21"/><path d="M676.894 555.67c-11.294 0-22.588-.752-33.882-.752 3.764-3.765 6.776-7.53 10.54-11.294.754-.753 0-1.506-.752-.753-4.518 3.764-11.294 7.529-16.565 12.047-12.047 0-24.094 0-35.388.753 3.765-2.26 7.53-4.518 9.788-8.283 0-.753 0-.753-.753-.753-6.023.753-12.8 5.27-18.07 8.283-.753.753-2.26 1.506-3.012 1.506-11.294.752-22.588.752-33.882 1.505 6.023-6.023 12.047-12.047 17.317-18.07 1.506.753 3.012.753 4.518.753 6.023 1.506 12.047 3.012 18.07 3.012 1.506 0 3.012-3.012.753-3.765-3.764-2.259-12.8-3.012-18.823-5.27 6.023-6.777 12.8-13.554 18.823-20.33 6.024 2.259 12.048 4.517 18.071 6.023 1.506 0 3.012-1.506 1.506-3.011-4.518-3.765-9.788-6.024-15.812-7.53l24.847-29.365c.753-.752 0-1.505-.753-.752l-22.588 18.07a18.353 18.353 0 000-9.035s-.753-.753-.753 0c-2.259 4.517-4.518 9.788-6.023 15.059-7.53 6.776-15.06 12.8-22.589 19.576 0-1.506.753-3.765.753-5.27 0-3.765 0-7.53-.753-12.048 0-.752-.753-.752-1.506 0-2.258 5.271-3.011 11.295-3.764 17.318 0 1.506-.753 3.012-.753 5.27l-27.106 24.848v-20.33l4.518-4.517c3.764-3.765 8.282-6.777 12.8-10.541.753-.753 0-2.26-1.506-2.26-3.012.754-6.024 2.26-9.036 4.518-1.505 1.506-5.27 5.27-7.529 6.024 0-6.777-.753-12.8-1.506-19.577 2.259-1.505 3.765-3.011 5.27-4.517 4.518-3.765 9.036-7.53 12.048-12.047.753-1.506-.753-3.012-2.26-3.012-6.023 2.259-10.54 7.53-16.564 11.294-1.506-11.294-3.764-22.588-7.53-33.13-.752-1.505-2.258-.752-2.258 0v29.365c-3.765-3.011-6.776-6.023-10.541-9.035-.753-.753-1.506 0-.753.753 3.012 5.27 6.023 10.541 9.788 15.812 0 .753.753.753.753 1.506 0 5.27 0 10.54-.753 15.811l-.753-.753c-3.012-3.011-6.023-5.27-9.788-7.529-.753 0-.753.753-.753.753 4.518 4.518 6.776 10.541 9.788 15.812 0 7.53-.753 14.306-.753 21.835-6.023-7.53-12.047-14.306-18.07-21.835v-21.083c0-1.505-2.26-1.505-2.26 0-1.505 3.765-3.01 8.283-3.764 13.553-2.259-3.011-5.27-6.023-7.53-9.035.754-2.259.754-4.518.754-6.776.753-4.518.753-8.283 0-12.8h-.753c-.753 3.011-1.506 5.27-3.012 8.282-.753 1.506-1.506 3.765-2.259 6.023-7.53-9.035-14.306-18.07-21.835-27.105-.753-.753-1.506 0-1.506.753 6.024 9.788 12.047 19.576 17.318 29.364-2.26 0-4.518-.753-5.27-.753-3.013-.753-6.024-.753-8.283-1.506-3.765-.753-4.518 6.024-.753 6.777 4.517.753 8.282 1.506 12.8 1.506h5.27c3.012 5.27 6.024 11.294 9.036 16.564-3.765-1.505-7.53-2.258-10.542-3.764-1.505 0-1.505 1.506-.752 2.259 5.27 3.764 10.54 6.776 16.564 9.035 3.765 6.776 7.53 12.8 11.294 19.576l-31.623 2.26c-3.012-2.26-5.27-5.271-8.283-6.777a1.664 1.664 0 00-2.258 2.259c1.506 2.258 3.011 3.764 4.517 5.27a6698.184 6698.184 0 01-32.376 2.259c-3.012-4.518-7.53-8.282-10.541-12.047-.753-.753-1.506 0-1.506.753l6.776 11.294c-12.8.753-26.353 1.506-39.153 2.259-1.506 0-1.506 2.259 0 2.259 12.047.753 24.847 2.258 36.894 3.011-6.023 3.012-12.8 7.53-15.811 13.553-.753 1.506.753 3.765 2.258 2.26 5.271-3.013 9.036-6.777 14.306-9.79 3.012-1.505 7.53-3.01 9.789-5.27 12.8.753 25.6 1.506 37.647 2.26-2.26 1.505-5.27 3.01-5.27 3.764-3.766 3.012-7.53 6.023-10.542 9.035-2.259 2.259.753 6.024 3.765 4.518 5.27-3.012 9.788-7.53 15.058-11.294 1.506-1.506 4.518-3.012 6.024-6.024 8.282 0 16.565.753 24.847.753-6.776 6.777-15.059 12.8-22.588 18.824-4.518-1.506-8.283-2.26-12.8-3.765-.753 0-1.506.753-.753 1.506 3.765 1.506 6.776 3.012 10.541 3.764-9.788 6.777-19.576 13.553-28.612 19.577-1.506-.753-3.012-.753-4.517-1.506-6.024-1.506-12.8-3.012-18.824-4.518-1.506 0-1.506 1.506-.753 2.26 4.518 1.505 9.035 3.011 12.8 5.27.753 0 3.012 1.506 5.27 2.259-15.058 9.788-30.87 20.33-44.423 32.376-1.506.753.753 3.012 1.506 2.259 14.306-9.788 30.118-18.07 45.177-26.353-.753 1.506-.753 3.765-1.506 4.518-.753 3.764-2.26 8.282-1.506 12.047 0 3.011 3.764 3.764 5.27 1.506 3.012-5.271 3.765-12.047 4.518-18.071 0-1.506.753-2.259.753-3.765 11.294-6.023 23.341-12.8 33.882-20.33-.753 3.013-1.506 6.024-2.259 8.283-1.505 3.765-2.258 7.53-3.764 12.047-.753 3.012 3.764 3.765 4.517 1.506 2.26-5.27 3.765-10.541 5.271-16.565.753-2.258 2.259-6.023 2.259-9.035 5.27-3.765 10.541-8.282 15.812-12.8l2.258-2.259c-.753 22.589-1.505 44.424-.753 67.012-.752.753-1.505.753-1.505 1.506-6.024 3.765-11.295 8.282-16.565 13.553-.753.753 0 1.506.753 1.506 3.765-2.259 8.282-4.518 12.047-6.777 1.506-.753 3.012-2.258 5.27-3.764.753 14.306 2.26 29.364 4.518 42.917.753 3.012 6.024 3.012 6.777 0 3.011-13.553 3.764-27.859 4.517-42.917 4.518 4.517 9.036 12.047 12.047 15.811.753 1.506 3.012 0 2.26-1.505-3.013-6.024-6.024-11.295-9.79-15.812-.752-1.506-2.258-3.765-4.517-5.27a514.29 514.29 0 000-48.19l6.777 9.036c-1.506 9.788-3.012 19.577.753 27.86.753 1.505 3.764.752 3.764-.754-.753-6.776 0-12.8.753-18.823 6.777 8.282 13.553 16.564 21.083 24.847-3.012 6.023-4.518 12.047-7.53 18.07-.753 1.506 1.506 3.765 3.012 2.26 2.259-3.013 4.518-6.777 6.024-10.542 0-.753.752-3.765 1.505-6.024a16940.442 16940.442 0 0030.118 32.377c2.259 2.259 7.53-.753 5.27-3.765-6.776-9.788-12.8-20.33-18.823-30.118 6.024 0 12.047.753 18.824 0 .753 0 .753-.752 0-1.505-5.27-2.26-11.294-3.012-17.318-3.765-1.506 0-3.012-.753-5.27-.753-6.777-10.541-12.8-21.082-19.577-31.624 5.27.753 9.788 0 13.553-2.258.753 0 .753-.753 0-.753-4.518-2.26-9.035-2.26-13.553-3.012-1.506 0-3.012-.753-4.518-.753-6.023-9.035-11.294-17.318-18.07-25.6l-.753-.753c16.564-.753 33.13-1.506 50.447-3.012 1.506.753 2.259 1.506 3.012 3.012 3.764 3.765 8.282 9.788 14.305 10.541 2.26.753 3.765-2.259 2.26-3.765-3.765-3.764-7.53-6.776-11.295-10.54 9.788-.754 20.33-2.26 30.118-3.765 1.506 1.505 3.765 3.011 5.27 5.27 3.765 4.518 6.777 9.788 11.295 15.059 1.505 2.259 5.27 0 4.517-2.259-3.012-6.776-7.53-12.8-12.8-18.823 12.047-2.26 23.341-4.518 35.388-6.777 7.53 0 6.777-5.27 3.765-5.27z" fill="#FFF"/></svg>